<svg xmlns="http://www.w3.org/2000/svg" viewBox="0 0 366.09 269.5"><defs><style>.cls-1,.cls-11,.cls-8{fill:#ff81da;}.cls-1{opacity:0.2;}.cls-1,.cls-10,.cls-11,.cls-12,.cls-13,.cls-14,.cls-15,.cls-16,.cls-17,.cls-2,.cls-3,.cls-4,.cls-5,.cls-6,.cls-7,.cls-8,.cls-9{isolation:isolate;}.cls-2,.cls-6,.cls-9{fill:#ffe16e;}.cls-2{opacity:0.38;}.cls-14,.cls-3{fill:#44b2b2;}.cls-3{opacity:0.1;}.cls-10,.cls-15,.cls-17,.cls-4{fill:#b1a1ff;}.cls-4{opacity:0.2;}.cls-5{fill:#6f3399;opacity:0.09;}.cls-6{opacity:0.4;}.cls-7{fill:#8fe0e0;}.cls-10,.cls-7{opacity:0.22;}.cls-8{opacity:0.22;}.cls-9{opacity:0.27;}.cls-11{opacity:0.26;}.cls-12,.cls-13{fill:#44cbcc;}.cls-12{opacity:0.22;}.cls-13{opacity:0.09;}.cls-14{opacity:0.17;}.cls-15{opacity:0.24;}.cls-16{fill:#ffc0ec;opacity:0.53;}.cls-17{opacity:0.37;}</style></defs><g id="Layer_2" data-name="Layer 2"><g id="Layer_1-2" data-name="Layer 1"><g id="decoration_shapes" data-name="decoration shapes"><path id="Polygon_1" data-name="Polygon 1" class="cls-1" d="M88.34,119.57,57.54,255.85,0,227.82Z"/><ellipse id="Ellipse_17" data-name="Ellipse 17" class="cls-2" cx="53.09" cy="61.55" rx="48" ry="44"/><path id="Polygon_2" data-name="Polygon 2" class="cls-3" d="M62.07,67.1l64.34,64.78L41.82,156.13Z"/><ellipse id="Ellipse_18" data-name="Ellipse 18" class="cls-4" cx="117.09" cy="57.55" rx="24" ry="56"/><rect id="Rectangle_35" data-name="Rectangle 35" class="cls-5" x="5.09" y="121.55" width="56" height="48"/><ellipse id="Ellipse_19" data-name="Ellipse 19" class="cls-6" cx="79.59" cy="142.88" rx="56" ry="20" transform="translate(-60.77 58.94) rotate(-30)"/><ellipse id="Ellipse_20" data-name="Ellipse 20" class="cls-7" cx="333.09" cy="117.55" rx="32" ry="92"/><path id="Polygon_3" data-name="Polygon 3" class="cls-8" d="M345.2,63.11,229.07,68.9,247.54,0Z"/><rect id="Rectangle_36" data-name="Rectangle 36" class="cls-9" x="245.09" y="49.55" width="64" height="104"/><path id="Polygon_4" data-name="Polygon 4" class="cls-10" d="M350.07,162.65,339.47,269.5l-50-18.18Z"/><rect id="Rectangle_37" data-name="Rectangle 37" class="cls-11" x="286.09" y="168.55" width="80" height="32"/><ellipse id="Ellipse_21" data-name="Ellipse 21" class="cls-12" cx="23.09" cy="129.55" rx="16" ry="128"/><rect id="Rectangle_38" data-name="Rectangle 38" class="cls-13" x="133.09" y="9.55" width="112" height="56"/><ellipse id="Ellipse_22" data-name="Ellipse 22" class="cls-14" cx="315.67" cy="193.22" rx="20" ry="53.65" transform="translate(-54.08 209.5) rotate(-33.99)"/><path id="Path_554" data-name="Path 554" class="cls-15" d="M365.09,33.55c-15.45-37.28-88-32-88-32l-16,56h40Z"/><rect id="Rectangle_39" data-name="Rectangle 39" class="cls-16" x="20.54" y="43.5" width="96" height="56" transform="translate(-28.26 50.55) rotate(-34)"/><rect id="Rectangle_40" data-name="Rectangle 40" class="cls-17" x="53.09" y="153.55" width="32" height="96"/></g></g></g></svg>