<svg xmlns="http://www.w3.org/2000/svg" viewBox="0 0 113.86 169.93"><defs><style>.cls-1{fill:#fff;}.cls-2{fill:#fe8277;}.cls-3{fill:#ffe16e;}.cls-4{fill:#fa233e;}.cls-5{fill:#ffa15c;}</style></defs><g id="Layer_2" data-name="Layer 2"><g id="Layer_1-2" data-name="Layer 1"><g id="S9C94a.tif"><path class="cls-1" d="M106.62,74V71.77q0-22.69,0-45.38a18.24,18.24,0,0,0-.25-3.39c-.63-3.17-2.31-5.56-5.52-6.5a13,13,0,0,0-3.53-.34q-27.15,0-54.29,0H40.76v-3c0-3,.06-6,0-9A3.87,3.87,0,0,0,38,.19c-1.7-.51-3,.16-4.2,1.42a75.26,75.26,0,0,1-6.25,5.45,1.73,1.73,0,0,1-1.68,0c-2.28-1.91-4.52-3.9-6.69-5.95-1.36-1.29-4-1.56-5-.13a7.9,7.9,0,0,0-1.47,3.67c-.23,2.36-.07,4.77-.07,7.15,0,4.26,0,4.26-4.15,4.37l-.68,0c-3.06.22-5.56,1.47-6.65,4.45A16.65,16.65,0,0,0,.05,26.25Q0,92.79,0,159.32c0,.46,0,.91,0,1.37a9.06,9.06,0,0,0,9.5,9.24c19.79-.17,39.59-.07,59.39-.07,9.59,0,19.17,0,28.76,0a9.66,9.66,0,0,0,3.73-.74c4.22-1.89,5.26-5.53,5.24-9.8,0-15.47,0-30.94,0-46.41v-2.23c.53-.07.85-.13,1.18-.15,3.87-.23,5.75-2.07,6-6,.08-1.19,0-2.39,0-3.59,0-6.71,0-13.42,0-20.13,0-4-2-6.75-6.2-6.68A5.41,5.41,0,0,1,106.62,74Z"/><path d="M106.62,74a5.41,5.41,0,0,0,1,.18c4.2-.07,6.17,2.65,6.2,6.68,0,6.71,0,13.42,0,20.13,0,1.2,0,2.4,0,3.59-.25,3.89-2.13,5.73-6,6-.33,0-.65.08-1.18.15v2.23c0,15.47,0,30.94,0,46.41,0,4.27-1,7.91-5.24,9.8a9.66,9.66,0,0,1-3.73.74c-9.59.06-19.17,0-28.76,0-19.8,0-39.6-.1-59.39.07A9.06,9.06,0,0,1,0,160.69c0-.46,0-.91,0-1.37Q0,92.8.05,26.25a16.65,16.65,0,0,1,1.06-5.61c1.09-3,3.59-4.23,6.65-4.45l.68,0c4.15-.11,4.15-.11,4.15-4.37,0-2.38-.16-4.79.07-7.15A7.9,7.9,0,0,1,14.13,1c1-1.43,3.69-1.16,5,.13,2.17,2.05,4.41,4,6.69,6a1.73,1.73,0,0,0,1.68,0A75.26,75.26,0,0,0,33.8,1.61C35.05.35,36.3-.32,38,.19a3.87,3.87,0,0,1,2.71,3.92c.11,3,0,6,0,9v3H43q27.15,0,54.29,0a13,13,0,0,1,3.53.34c3.21.94,4.89,3.33,5.52,6.5a18.24,18.24,0,0,1,.25,3.39q0,22.7,0,45.38Zm-19-52.44H9.82c-.51,0-1,0-1.53,0a3,3,0,0,0-3.12,3,15.4,15.4,0,0,0-.06,2q0,23.21,0,46.4,0,43.34,0,86.67c0,3.75.78,4.54,4.45,4.54q38,0,76.07,0c1.58,0,2.14-.31,2.13-2q-.09-24.83,0-49.64c0-1.7-.53-2.09-2.12-2.05a15.88,15.88,0,0,1-9.16-2.41c-7.11-4.49-9.5-14.32-7.52-21,2.16-7.29,8.4-13.26,16.45-12.9.71,0,1.43,0,2.22,0Zm7.69,58.86H85.8c-6.24,0-9.75,2.49-11.52,8.47-2,6.69,2,15.59,10.93,15.5,7.2-.07,14.39,0,21.59,0,1.2,0,1.55-.4,1.54-1.57q-.07-10.4,0-20.79c0-1.26-.34-1.69-1.63-1.66C102.92,80.43,99.12,80.38,95.32,80.38Zm-2.49,57c0,8.35,0,16.7,0,25,0,1.3.32,1.88,1.7,1.75,1.07-.11,2.15,0,3.23,0,2.71,0,3.75-1,3.75-3.68,0-16.19,0-32.38,0-48.57,0-1.16-.45-1.45-1.51-1.41-1.81.06-3.63.11-5.43,0-1.48-.1-1.79.5-1.78,1.86C92.86,120.68,92.83,129,92.83,137.37Zm.09-63.22c2.34,0,4.44-.1,6.53,0,1.62.1,2.1-.41,2.1-2.07-.06-15.35,0-30.71,0-46.06a12.36,12.36,0,0,0,0-1.36c-.2-2.09-1.2-3.06-3.28-3.16-1.08-.05-2.17.1-3.23,0-1.75-.23-2.17.44-2.17,2.16.07,16.15,0,32.3,0,48.45C92.84,72.72,92.89,73.33,92.92,74.15ZM35.73,7c-2.23,2-4.12,3.62-5.83,5.38s-3.65,2.18-5.44.74S21,10,19.23,8.39c-.38-.35-.8-.65-1.52-1.22,0,3,0,5.54.05,8.08,0,.31.7.85,1.08.86q7.9.08,15.81,0a1.4,1.4,0,0,0,1-.91C35.77,12.66,35.73,10.12,35.73,7Z"/><path class="cls-2" d="M87.63,21.52V74.16c-.79,0-1.51,0-2.22,0-8-.36-14.29,5.61-16.45,12.9-2,6.68.41,16.51,7.52,21a15.88,15.88,0,0,0,9.16,2.41c1.59,0,2.13.35,2.12,2.05q-.09,24.81,0,49.64c0,1.72-.55,2-2.13,2q-38-.08-76.07,0c-3.67,0-4.45-.79-4.45-4.54q0-43.34,0-86.67,0-23.19,0-46.4a15.4,15.4,0,0,1,.06-2,3,3,0,0,1,3.12-3c.5,0,1,0,1.53,0H87.63ZM59.46,85.72c.1-5.44-2.24-9.78-6.21-13.23-3.39-3-9.64-3.28-13.81-.77a3.07,3.07,0,0,1-3.53,0,14,14,0,0,0-11.21-1c-6,2-8.82,6.61-9.74,12.53a15.36,15.36,0,0,0,3.31,12.62c3.37,4,7,7.78,10.55,11.68q2.2,2.44,4.29,5a4.94,4.94,0,0,0,7,.89,14.31,14.31,0,0,0,1.8-2c4.35-4.81,8.6-9.7,13.07-14.4A16.78,16.78,0,0,0,59.46,85.72Z"/><path class="cls-3" d="M95.32,80.38c3.8,0,7.6.05,11.39,0,1.29,0,1.64.4,1.63,1.66q-.07,10.4,0,20.79c0,1.17-.34,1.57-1.54,1.57-7.2,0-14.39-.09-21.59,0-8.88.09-12.92-8.81-10.93-15.5,1.77-6,5.28-8.46,11.52-8.47Zm-3.53,11.9c0-4.25-3-7.53-6.89-7.51-4.13,0-6.8,3.64-6.82,7.61A7.24,7.24,0,0,0,85,99.9C89,100,92,96,91.79,92.28Z"/><path class="cls-2" d="M92.83,137.37c0-8.34,0-16.69,0-25,0-1.36.3-2,1.78-1.86,1.8.12,3.62.07,5.43,0,1.06,0,1.51.25,1.51,1.41,0,16.19,0,32.38,0,48.57,0,2.69-1,3.64-3.75,3.68-1.08,0-2.16-.08-3.23,0-1.38.13-1.71-.45-1.7-1.75C92.86,154.07,92.83,145.72,92.83,137.37Z"/><path class="cls-2" d="M92.92,74.15c0-.82-.08-1.43-.08-2,0-16.15,0-32.3,0-48.45,0-1.72.42-2.39,2.17-2.16,1.06.14,2.15,0,3.23,0,2.08.1,3.08,1.07,3.28,3.16a12.36,12.36,0,0,1,0,1.36c0,15.35,0,30.71,0,46.06,0,1.66-.48,2.17-2.1,2.07C97.36,74.05,95.26,74.15,92.92,74.15Z"/><path class="cls-3" d="M35.73,7c0,3.08,0,5.62,0,8.15a1.4,1.4,0,0,1-1,.91q-7.91.09-15.81,0c-.38,0-1.07-.55-1.08-.86-.09-2.54-.05-5.09-.05-8.08.72.57,1.14.87,1.52,1.22,1.74,1.59,3.4,3.29,5.23,4.77s3.76,1,5.44-.74S33.5,9.07,35.73,7Z"/><path d="M59.46,85.72A16.78,16.78,0,0,1,55,97.11c-4.47,4.7-8.72,9.59-13.07,14.4a14.31,14.31,0,0,1-1.8,2,4.94,4.94,0,0,1-7-.89q-2.09-2.55-4.29-5c-3.51-3.9-7.18-7.66-10.55-11.68A15.36,15.36,0,0,1,15,83.32c.92-5.92,3.78-10.55,9.74-12.53a14,14,0,0,1,11.21,1,3.07,3.07,0,0,0,3.53,0c4.17-2.51,10.42-2.19,13.81.77C57.22,75.94,59.56,80.28,59.46,85.72ZM37.13,108.88c1.57-1.75,3-3.4,4.49-5,2.83-3.07,5.75-6.06,8.5-9.21a25,25,0,0,0,3.31-4.85c2-3.77.72-10.18-3.73-12.87-3-1.8-5.62-1.94-8.26.1s-5.31,1.61-7.94-.18C30.69,75,28,75.33,25,76.79c-5.39,2.59-6.72,10.66-2.87,15.43C24,94.54,26,96.72,28,98.94,31,102.23,34,105.5,37.13,108.88Z"/><path d="M91.79,92.28C92,96,89,100,85,99.9a7.24,7.24,0,0,1-6.93-7.52c0-4,2.69-7.58,6.82-7.61C88.76,84.75,91.77,88,91.79,92.28ZM85,90.19a1.87,1.87,0,0,0-1.71,2.14c.11.77,1,1.43,1.55,2.13.63-.69,1.61-1.3,1.79-2.09A1.87,1.87,0,0,0,85,90.19Z"/><path class="cls-4" d="M37.13,108.88C34,105.5,31,102.23,28,98.94c-2-2.22-4.06-4.4-5.93-6.72C18.23,87.45,19.56,79.38,25,76.79c3-1.46,5.74-1.84,8.55.07,2.63,1.79,5.15,2.35,7.94.18s5.29-1.9,8.26-.1c4.45,2.69,5.71,9.1,3.73,12.87a25,25,0,0,1-3.31,4.85c-2.75,3.15-5.67,6.14-8.5,9.21C40.14,105.48,38.7,107.13,37.13,108.88Z"/><path class="cls-5" d="M85,90.19a1.87,1.87,0,0,1,1.63,2.18c-.18.79-1.16,1.4-1.79,2.09-.55-.7-1.44-1.36-1.55-2.13A1.87,1.87,0,0,1,85,90.19Z"/></g></g></g></svg>