<svg xmlns="http://www.w3.org/2000/svg" viewBox="0 0 177.71 170.8"><defs><style>.cls-1{fill:#fff;}.cls-1,.cls-2,.cls-3,.cls-4{stroke:#fff;stroke-miterlimit:10;stroke-width:0.25px;}.cls-2{fill:#b1a1ff;}.cls-3{fill:#6f3399;}</style></defs><g id="Layer_2" data-name="Layer 2"><g id="Layer_1-2" data-name="Layer 1"><g id="_8aXqi3.tif" data-name="8aXqi3.tif"><path class="cls-1" d="M177.59,166.29a15.24,15.24,0,0,1-.84,3.5c0-9.76,0-19.52-.08-29.28-.06-7.18-3.23-11.53-9.87-13.67-1.71-.55-3.5-.84-5.3-1.26,5.87-9,6.36-10.81,6.06-21.39C167.13,88.72,154,79.05,139,82.87c-13.89,3.54-21.18,21-14.75,34.3,1.42,2.93,3.13,5.71,4.73,8.62-11.14,1.32-15.08,5.78-15.1,16.9q0,13.56-.06,27.1m-50.71,0c0-9.61,0-19.23-.07-28.84,0-7.57-2.93-11.7-9.89-14.1a53,53,0,0,0-5.32-1.28c9.94-11.66,6.64-31.76-.77-37.87C38.69,80.82,25.5,80,17.22,87.06,13.42,90.3,9.55,93.9,8.9,99.33c-1.12,9.5-1.67,18.93,7.12,26.14C5.84,127.22,4.38,128.28.12,136.55M97.28,11.18C94.8.8,93.9.13,83.18.13q-21.39,0-42.8,0c-9.63,0-12,2.44-12,12.21s0,19.52,0,29.28c0,7.56,2.64,10.25,10.2,10.48,3.73.11,7.48,0,11.39,0a13.27,13.27,0,0,1,0,2.28c-1.3,6-2.72,11.91-3.87,17.9-.23,1.19.59,2.58.92,3.87,1.39-.39,3.17-.36,4.11-1.24,3.59-3.34,7-6.92,10.31-10.51s6.08-7.56,9.75-10.58c1.78-1.46,5-1.36,7.64-1.42.53,0,1.32,2.44,1.62,3.83a8.1,8.1,0,0,0,8,6.76,113.07,113.07,0,0,0,11.35,0,8.37,8.37,0,0,1,7.81,3.43c4.45,5.57,9.2,10.92,14.11,16.08,1.17,1.23,3.46,1.4,5.23,2.06.43-1.56,1.31-3.15,1.19-4.66-.45-5.48-1.24-10.93-2-16.85,4.33,0,8.38.06,12.42,0,6.42-.13,9.93-3.63,10-10q.09-15.72,0-31.46c0-7.2-3.11-10.31-10.42-10.36-10.48-.08-21,0-31.44,0Z"/><path class="cls-2" d="M57.83,169.79H5.37q.13-13.95.26-27.89c.07-7.61,2.9-10.49,10.59-10.53q15.47-.09,31,0c6.6,0,10.34,3.89,10.4,10.52Q57.71,155.85,57.83,169.79Z"/><path class="cls-3" d="M171.5,169.79H119q.13-13.95.26-27.9c.07-7.53,3-10.48,10.65-10.52q15.26-.09,30.52,0c7.41,0,10.72,3.47,10.77,11Q171.36,156.05,171.5,169.79Z"/><path class="cls-4" d="M57.83,169.79q-.12-13.95-.26-27.89c-.06-6.63-3.8-10.48-10.4-10.52q-15.48-.1-30.95,0c-7.69,0-10.52,2.92-10.59,10.53q-.12,13.95-.26,27.89H.12V136.55c4.26-8.27,5.72-9.33,15.9-11.08-8.79-7.21-8.24-16.64-7.12-26.14.65-5.43,4.52-9,8.32-12.27C25.5,80,38.69,80.82,47,87.7c7.41,6.11,10.71,26.21.77,37.87a53,53,0,0,1,5.32,1.28c7,2.4,9.85,6.53,9.89,14.1.06,9.61.05,19.23.07,28.84Zm-9.72-68.08H15c-.51,8.38-1.2,16.57,7.05,21.64a17.2,17.2,0,0,0,19,0C49.31,118.29,48.75,110.12,48.11,101.71Zm-1.9-6c-4.44-6.89-10.3-8.58-17-7.92a14.66,14.66,0,0,0-12.1,7.92Z"/><path class="cls-4" d="M171.5,169.79q-.12-13.72-.26-27.46c-.05-7.49-3.36-10.93-10.77-11q-15.27-.08-30.52,0c-7.65,0-10.58,3-10.65,10.52q-.12,14-.26,27.9h-5.25q0-13.54.06-27.1c0-11.12,4-15.58,15.1-16.9-1.6-2.91-3.31-5.69-4.73-8.62-6.43-13.26.86-30.76,14.75-34.3,15-3.82,28.16,5.85,28.59,21.32.3,10.58-.19,12.34-6.06,21.39,1.8.42,3.59.71,5.3,1.26,6.64,2.14,9.81,6.49,9.87,13.67.08,9.76.06,19.52.08,29.28Zm-42.7-66.11c-1,8.22-.27,15.61,7.53,20a17.24,17.24,0,0,0,19.33-.92c5.69-4,7.7-11.12,6-18-8.83-6.57-17.66-4.77-26.54-2.26C133.2,103.09,131.16,103.27,128.8,103.68Zm.87-5.42c5.23-1.2,9.79-2.05,14.24-3.32,4.15-1.18,8-2.2,11.77,1.15,1.11,1,3,1.12,5,1.81-3.07-7.19-8.26-10.37-15.86-10.28C137.66,87.71,132.48,91.14,129.67,98.26Z"/><path class="cls-4" d="M97.28,11.18h9.36c10.48,0,21-.06,31.44,0,7.31.05,10.39,3.16,10.42,10.36q.06,15.73,0,31.46c0,6.39-3.54,9.89-10,10-4,.08-8.09,0-12.42,0,.71,5.92,1.5,11.37,2,16.85.12,1.51-.76,3.1-1.19,4.66-1.77-.66-4.06-.83-5.23-2.06C116.73,77.35,112,72,107.53,66.43A8.37,8.37,0,0,0,99.72,63a113.07,113.07,0,0,1-11.35,0,8.1,8.1,0,0,1-8-6.76c-.3-1.39-1.09-3.84-1.62-3.83-2.6.06-5.86,0-7.64,1.42-3.67,3-6.48,7.06-9.75,10.58S54.69,71.59,51.1,74.93c-.94.88-2.72.85-4.11,1.24-.33-1.29-1.15-2.68-.92-3.87,1.15-6,2.57-11.93,3.87-17.9a13.27,13.27,0,0,0,0-2.28c-3.91,0-7.66.09-11.39,0C31,51.87,28.4,49.18,28.37,41.62c0-9.76,0-19.52,0-29.28S30.75.14,40.38.13q21.4,0,42.8,0C93.9.13,94.8.8,97.28,11.18Zm22.63,61.19.84-.22c-.37-3.28-.58-6.58-1.15-9.83-.62-3.56.81-4.78,4.22-4.69,4.65.13,9.31,0,14,0,2.88,0,4.29-1.1,4.27-4.12q-.09-16.37,0-32.74c0-2.87-1-4.24-4.06-4.23q-24,.12-48,0c-3.26,0-4.31,1.34-4.28,4.46.11,10.62.15,21.25,0,31.87-.06,3.7,1.49,4.91,5,4.78a88.84,88.84,0,0,1,12.64.09,11.16,11.16,0,0,1,6.19,2.91C113.2,64.33,116.46,68.45,119.91,72.37ZM90.82,10.8c.85-3.58-.39-5.23-3.89-5.22q-24,0-48.08,0c-2.67,0-4,1.07-4,3.9q.08,16.62,0,33.24c0,2.78,1.18,3.94,4,3.88,4.36-.1,8.74-.08,13.11,0,5.63.09,6.72,2.23,4.34,7.45-1.23,2.7-1.75,5.73-2.59,8.61L55.53,64c1.92-2.54,3.85-5.08,5.76-7.63,4.62-6.18,9.65-11.61,19-10.13,0-7.91,0-15.74,0-23.57C80.31,13.84,81.86,12.06,90.82,10.8Z"/><path class="cls-1" d="M48.11,101.71c.64,8.41,1.2,16.58-7,21.64a17.2,17.2,0,0,1-19,0c-8.25-5.07-7.56-13.26-7-21.64Zm-21.36,7.7c-1.89-1.2-3.09-2.55-3.95-2.36a4.07,4.07,0,0,0-2.33,2.81c-.12.54,1.59,2.11,2.45,2.09C23.94,111.93,24.94,110.7,26.75,109.41Zm13.38,3.91c1.31-1.83,2.72-2.94,2.59-3.82S41.13,107.33,40,107c-.54-.15-2.19,1.47-2.22,2.33C37.79,110.38,39,111.44,40.13,113.32Z"/><path class="cls-2" d="M46.21,95.66H17.11a14.66,14.66,0,0,1,12.1-7.92C35.91,87.08,41.77,88.77,46.21,95.66Z"/><path class="cls-1" d="M128.8,103.68c2.36-.41,4.4-.59,6.34-1.13,8.88-2.51,17.71-4.31,26.54,2.26,1.68,6.83-.33,14-6,18a17.24,17.24,0,0,1-19.33.92C128.53,119.29,127.79,111.9,128.8,103.68Zm11.62,6c-1.81-1.33-2.9-2.76-3.78-2.63a4,4,0,0,0-2.5,2.63c-.16.55,1.43,2.23,2.28,2.27C137.45,112,138.52,110.83,140.42,109.68Zm13.33,3.64c1.34-1.81,2.76-2.91,2.64-3.79a4.07,4.07,0,0,0-2.64-2.5c-.55-.15-2.22,1.44-2.26,2.29C151.45,110.34,152.6,111.42,153.75,113.32Z"/><path class="cls-3" d="M129.67,98.26c2.81-7.12,8-10.55,15.19-10.64,7.6-.09,12.79,3.09,15.86,10.28-2-.69-3.93-.81-5-1.81-3.76-3.35-7.62-2.33-11.77-1.15C139.46,96.21,134.9,97.06,129.67,98.26Z"/><path class="cls-3" d="M119.91,72.37c-3.45-3.92-6.71-8-10.43-11.68a11.16,11.16,0,0,0-6.19-2.91,88.84,88.84,0,0,0-12.64-.09c-3.46.13-5-1.08-5-4.78.16-10.62.12-21.25,0-31.87,0-3.12,1-4.48,4.28-4.46q24,.14,48,0c3.09,0,4.08,1.36,4.06,4.23q-.09,16.37,0,32.74c0,3-1.39,4.16-4.27,4.12-4.65-.08-9.31.08-14,0-3.41-.09-4.84,1.13-4.22,4.69.57,3.25.78,6.55,1.15,9.83ZM111.28,34c-1.52-7.46-5.61-10.28-10.93-9-4.26,1-6.46,4.22-5.24,8.8,1.8-.94,3.34-2.1,5.07-2.56a9.8,9.8,0,0,1,4.78.11A50.26,50.26,0,0,1,111.28,34Zm5.48-.41a39.34,39.34,0,0,1,5.91-2,16.18,16.18,0,0,1,5.33.14,53.43,53.43,0,0,1,5.94,1.7c-1.35-6.27-4.22-8.81-8.72-8.68C120.42,24.9,117.79,27.32,116.76,33.58Zm5.06,9.25a47.77,47.77,0,0,1-6.1,2.88,7.4,7.4,0,0,1-3.84-.18c-1.89-.51-3.68-1.35-6.1-2.27,1.06,6.23,3.85,8.83,8.21,8.78S121.19,49.24,121.82,42.83Z"/><path class="cls-2" d="M90.82,10.8c-9,1.26-10.51,3-10.51,11.9,0,7.83,0,15.66,0,23.57-9.36-1.48-14.39,3.95-19,10.13C59.38,59,57.45,61.49,55.53,64l-1.88-1.38c.84-2.88,1.36-5.91,2.59-8.61,2.38-5.22,1.29-7.36-4.34-7.45-4.37-.07-8.75-.09-13.11,0-2.78.06-4-1.1-4-3.88q.08-16.62,0-33.24c0-2.83,1.35-3.9,4-3.9q24,0,48.08,0C90.43,5.57,91.67,7.22,90.82,10.8Zm-50.4,8.3H73.58V14.23H40.42Zm11,16.34H73.48V30.52H51.39ZM40.5,30.5v5h5v-5Z"/><path class="cls-4" d="M26.75,109.41c-1.81,1.29-2.81,2.52-3.83,2.54-.86,0-2.57-1.55-2.45-2.09a4.07,4.07,0,0,1,2.33-2.81C23.66,106.86,24.86,108.21,26.75,109.41Z"/><path class="cls-4" d="M40.13,113.32c-1.17-1.88-2.34-2.94-2.31-4,0-.86,1.68-2.48,2.22-2.33,1.09.3,2.53,1.48,2.68,2.47S41.44,111.49,40.13,113.32Z"/><path class="cls-4" d="M140.42,109.68c-1.9,1.15-3,2.31-4,2.27-.85,0-2.44-1.72-2.28-2.27a4,4,0,0,1,2.5-2.63C137.52,106.92,138.61,108.35,140.42,109.68Z"/><path class="cls-4" d="M153.75,113.32c-1.15-1.9-2.3-3-2.26-4,0-.85,1.71-2.44,2.26-2.29a4.07,4.07,0,0,1,2.64,2.5C156.51,110.41,155.09,111.51,153.75,113.32Z"/><path class="cls-4" d="M111.28,34A50.26,50.26,0,0,0,105,31.35a9.8,9.8,0,0,0-4.78-.11c-1.73.46-3.27,1.62-5.07,2.56-1.22-4.58,1-7.76,5.24-8.8C105.67,23.71,109.76,26.53,111.28,34Z"/><path class="cls-4" d="M116.76,33.58c1-6.26,3.66-8.68,8.46-8.82,4.5-.13,7.37,2.41,8.72,8.68a53.43,53.43,0,0,0-5.94-1.7,16.18,16.18,0,0,0-5.33-.14A39.34,39.34,0,0,0,116.76,33.58Z"/><path class="cls-4" d="M121.82,42.83C121.19,49.24,118.43,52,114,52s-7.15-2.55-8.21-8.78c2.42.92,4.21,1.76,6.1,2.27a7.4,7.4,0,0,0,3.84.18A47.77,47.77,0,0,0,121.82,42.83Z"/><path class="cls-4" d="M40.42,19.1V14.23H73.58V19.1Z"/><path class="cls-4" d="M51.39,35.44V30.52H73.48v4.92Z"/><path class="cls-4" d="M40.5,30.5h5v5h-5Z"/></g></g></g></svg>