<svg xmlns="http://www.w3.org/2000/svg" viewBox="0 0 136.92 170.58"><defs><style>.cls-1,.cls-2{fill:#44cbcc;}.cls-2,.cls-3{stroke:#000;stroke-linecap:round;stroke-linejoin:round;stroke-width:6px;}.cls-3{fill:#0eeaff;}</style></defs><g id="Layer_2" data-name="Layer 2"><g id="Layer_1-2" data-name="Layer 1"><rect class="cls-1" x="51.27" y="48.37" width="53.3" height="31.53"/><path class="cls-2" d="M41.38,82.6a5.92,5.92,0,0,1-3.82-2.67,25,25,0,0,0-17-11.25c-5-.94-10-.71-14.47,2.25a6.48,6.48,0,0,0-2.59,2.71c-.6,1.41-.92,2.83.4,4.34,3.94,4.5,7.73,9.13,11.51,13.77A155,155,0,0,1,27.75,109.2,160.65,160.65,0,0,0,43.54,131c.56.66,1.16,1.3,1.65,2,1,1.46,2,2.78.91,4.85s-.43,4.43-.18,6.6a25.7,25.7,0,0,0,25,23.1c9.43.07,18.85,0,28.27,0,6.12,0,11.38-2.32,16.13-6a27.13,27.13,0,0,0,7.47-9,24.09,24.09,0,0,0,2-5.8A1.61,1.61,0,0,0,125,146c-1-2.48.66-4.06,2-5.64,4.32-5,6.12-10.9,6.44-17.31.83-16.29.25-32.59.3-48.88,0-5.8-3-9.35-7.61-10.92a10.9,10.9,0,0,0-9.78,1.12,13.5,13.5,0,0,1-3.84,1.81"/><path class="cls-2" d="M88.6,89.08c-.37-9.92-.08-19.84-.15-29.76a12.05,12.05,0,0,1,.37-3.81c.65-2,1-3.82-.22-5.67a3.75,3.75,0,0,1-.33-2.16c0-11.31,0-22.62,0-33.92A11,11,0,0,0,78.62,3.1,11.34,11.34,0,0,0,66,11.44a13.49,13.49,0,0,0-.34,3.48q0,13.56,0,27.1a4.54,4.54,0,0,1-.37,2.48c-.91,1.36-.56,2.64-.15,4a17.13,17.13,0,0,1,.68,5V93.07"/><path class="cls-2" d="M64.32,46.18a8.12,8.12,0,0,1-3.51-1.47c-4.14-2.39-8.4-2.87-12.61-.18A10.65,10.65,0,0,0,43,54c0,8,0,16,0,23.94a5.12,5.12,0,0,1-.55,3,4.2,4.2,0,0,0-.31,4c.9,3,1.51,6,3.34,8.64a2,2,0,0,1,.34,1.33"/><path class="cls-2" d="M111.21,93.74V72.29a10,10,0,0,1,.33-2.67c.56-2,.85-3.92-.22-6-.67-1.33-.47-3.17-.41-4.77.16-4.75-4.82-10.27-10.34-10.35a12.59,12.59,0,0,0-7.81,2.21,15.29,15.29,0,0,1-2.83,1.49"/><path class="cls-3" d="M47,136a6.36,6.36,0,0,1,3.81,1.35c1.71,1.2,3.37,2.49,5,3.82a3.06,3.06,0,0,0,2.51.82"/></g></g></svg>