<svg xmlns="http://www.w3.org/2000/svg" xmlns:xlink="http://www.w3.org/1999/xlink" viewBox="0 0 365.67 660.63"><defs><style>.cls-1{fill:none;}.cls-2{clip-path:url(#clip-path);}.cls-3{fill:#231f20;}.cls-4{fill:#fff;}</style><clipPath id="clip-path" transform="translate(0 0)"><rect class="cls-1" width="365.67" height="660.63"/></clipPath></defs><g id="Layer_2" data-name="Layer 2"><g id="Layer_1-2" data-name="Layer 1"><g id="topCaliceLayer"><g class="cls-2"><g class="cls-2"><path class="cls-3" d="M205.82,0a8.76,8.76,0,0,0,2.52,1c13.52.72,27.16.5,40.54,2.24,22.1,2.87,44.41,5.92,64.35,16.86a61.66,61.66,0,0,1,17.84,14.36c2.71,3.32,3.24,9.85,2.33,14.45-5.5,27.57-11.31,55.08-17.8,82.43-5.41,22.84-13,45.09-24.69,65.55-15.05,26.33-36.55,45-66.54,52.82-2.36.61-4.68,1.36-7,2a10,10,0,0,0-7.58,7.48C207,269,207.4,279,208.54,289a78.16,78.16,0,0,1,.25,9.44c0,3.25,1.39,4.73,4.72,5,12.84,1.08,24.81,5.06,34.3,13.8,5.83,5.37,10.63,12.06,14.9,18.79,1.68,2.65,2,7.55.67,10.48-4.53,10.37-7.73,21.56-16.79,29.51-9.46,8.3-20,14.14-32.67,15.11-4.36.33-6.17,2.23-6.13,6.46.07,7.84-.4,15.72.27,23.51.21,2.41,2.94,5.46,5.3,6.65,6.93,3.48,8.68,8.15,2.65,12.28-9.46,6.49-6.92,15.37-6,23.61A161,161,0,0,0,216,492.19c2.35,7.73,6.19,15,9.89,22.28a9.15,9.15,0,0,0,5.9,4.29c17.63,2.61,35.4,4.27,53,7.3,17.32,3,33.12,10.49,48.52,18.8,8.53,4.61,15.64,10.61,20.21,19.28,1.27,2.4,1.87,5.2,3.34,7.46,2.74,4.2,5.9,8.14,8.88,12.19v22a13.59,13.59,0,0,0-2.26,1.83,106.2,106.2,0,0,1-35.3,29.3c-28.91,14.66-59.84,20.93-92,21.76q-17.12.45-34.23,1c-.68,0-1.35.62-2,1h-32a26.58,26.58,0,0,0-4.52-1c-3.48-.16-7,.24-10.47-.18-12-1.48-24-3.06-35.94-4.89-13-2-26.26-3.49-39-6.72a301.71,301.71,0,0,1-37.8-12.79c-10.35-4.13-20.4-9.52-27.47-18.46C7.79,610.51,4.17,603.42,0,596.76v-12c12.08-22.62,29.88-38.35,54.31-47,20.18-7.17,40.89-11.84,61.85-15.71,6.27-1.15,12.75-1.13,19-2.27,2.41-.44,5.44-2.1,6.58-4.1,8.68-15.28,14-31.81,17.1-49.06.67-3.68,1.58-7.34,1.92-11.05.7-7.79-3.86-12.93-9.49-17.29-4.39-3.4-4.52-5.39-.16-8.93a18.7,18.7,0,0,1,3.57-2.56c3.91-1.8,5.49-4.55,5.26-9-.37-7.32,0-14.68-.15-22-.12-4.23-2.56-6.79-6.72-8-9.24-2.63-18.46-5.46-26.13-11.6-6.2-5-11.83-10.27-13.25-18.8-.45-2.71-2.23-5.39-4-7.67-5.48-7.25-5.45-13.58.54-20.3,3.07-3.44,6.13-6.9,9.29-10.26,9.78-10.39,22.2-15.16,36.08-16.82,1.92-.23,3.81-.76,7.14-1.44,0-11.37.94-23-.25-34.39-.87-8.25-5-15.5-14.51-18.18-12.13-3.42-23.77-8.16-33.51-16.55a1.32,1.32,0,0,0-.44-.23c-16.33-5.19-22.51-19.6-29-33.13a244.19,244.19,0,0,1-15-38.57c-5.58-19.66-10-39.67-14.07-59.72-3.64-18-6.19-36.28-9-54.47-1.16-7.36,3.88-12.31,8-17.2,7.53-8.88,18.47-11.85,29-15.46,15.81-5.43,31.84-9.58,48.7-10.08,11-.34,22.05-1.25,33.07-2a13.43,13.43,0,0,0,3-1ZM40.06,625.77c-6.91,2.3-9.56-5.12-15.19-6.4,2,3.46,4.07,7.08,7.21,8.67A201.81,201.81,0,0,0,56.7,638.61a260.07,260.07,0,0,0,57.43,13.06c14.79,1.63,29.55,4.07,44.39,4.77,17.59.84,35.24.21,52.87.18a22.67,22.67,0,0,0,3.34-.51c0-.57,0-1.15,0-1.72-4.49-.25-9-.47-13.46-.76-4.83-.32-9.66-.7-14.48-1.06,2.75-.3,5.49-.75,8.25-.89,7.75-.41,15.51-1,23.26-1,19.79,0,39.24-3,58.68-6.11,4.67-.73,9.24-2.07,13.85-3.14l-.13-1.9c-2.55-.17-5.12-.31-7.67-.52-6.28-.51-12,4.39-18.59,1.79-1.05-.41-2.82.89-4.21,1.52-.69.3-1.28,1.27-1.89,1.24-4.5-.23-8.63-.92-13.48.58-5.8,1.8-12.57.55-18.92.47-25.23-.3-50.46-.53-75.69-1.07a161,161,0,0,1-19.55-2.07c-10-1.45-20-3.14-29.93-4.85-7.21-1.23-14.73-1.74-21.49-4.26s-13.15-4.2-20.23-2.81c.35-1.14.7-2.28,1.12-3.63L47.76,624.8c.28-.71.83-2.08,1.61-4.06l-4.61,1.9.45-1.28c-1.73-.93-3.54-1.75-5.17-2.84s-2.87-2.86-4.6-3.57c-2.22-.91-4.75-1.06-7.15-1.53l-1.21,1.92c1.61,1.78,3,3.84,4.87,5.29a90.32,90.32,0,0,0,8.11,5.14M171.51,350a20,20,0,0,0,2.78,1c4,.8,8.16,2.62,11.92,2,4.83-.82,9.35-3.59,13.91-5.71.32-.15-.09-1.86-.14-2.48l4-2.35-.14-1.51-9.74-1.05c2.5-.67,4.16-1.28,5.88-1.54,3.79-.56,4.09-3.19,2.56-5.52-3.91-5.94-8-11.38-16.77-10.68-7.21.59-12.74,3.08-15.83,9.43s-3.44,12.85,1.8,18.62l-8.39-.69c-.16.76-.33,1.53-.49,2.3L181,359.18c.45-.79.9-1.58,1.34-2.37-1.55-1.17-3-2.46-4.69-3.48-2-1.23-4.1-2.23-6.16-3.32m3.9-39c12.21,1.26,13.43.17,13.43-12,0-3.15,0-6.31,0-9.46-.16-8-.36-15.94-.55-23.86H164.85v33.78c0,8,.89,9.09,8.65,10.9a13.5,13.5,0,0,1,2.09.82l-14-1.84c2.19,4.55,15.92,7.26,21.23,4.79l-7.42-3.1M267.3,535.37c-4.17-4.27-9.81-.51-14.28-3.19,4.41,7.9,4.44,11.06,0,15,2.58-9.78-.37-16.12-9.89-17,1.25,4.32,6.67,7.09,5.16,13.07l-5.07-3.69c-1.09,4.42.22,5.94,4.41,4.34-2.11,6.25-4.49,8.12-7.63,7.58l3.7-4.58c-1.82-.67-4.06-2.38-5.38-1.84-5.28,2.18-6.55-1.16-9-4.64-2-2.83-3.08-7.55-8.37-7.52.28,1.64.5,3,.72,4.28l-.55.18c-1-2-2-4-3.09-6.1l4.67-.85c0-.48,0-1-.05-1.45h-6.39c-4.15-11.39-8.49-23.32-12.83-35.25l-2,.67c1.43,6.21,2.86,12.42,4.46,19.4-.9-1.09-1.51-1.48-1.61-2q-4.77-25.38-9.45-50.78l-2.22-12-2.21.42,4.11,49.37A68.76,68.76,0,0,1,191.9,486c-.87-10.82-1.23-21.68-2.23-32.49-.18-1.89-2.26-4.93-3.8-5.15-6.17-.9-12.47-.84-18.72-1.27-3.27-.22-4.09,1.18-4.4,4.34-1.05,10.38-2,20.82-4,31-3.71,18.91-12.54,35.52-25.12,50.06-2.83,3.27-6.61,5.71-9.95,8.54l-.5-.69L133.42,530l-.9-1.26H117.2c6.45-3.08,14.5-.08,20.42-5.45-8.43,0-16.91,0-24.94,2C94,529.62,75.41,534.3,57.19,540.15c-11.09,3.56-22.89,6.57-30.48,17.24-6,8.38-11.08,16.72-10.67,28.11l3.49-4c.49,1.4,1,2.81,1.87,5.35,1.36-3.19,2.22-5.2,3.1-7.28v15.06l1.5.28,4.44-18,1.42.31c-1,8.09-5.11,16.11-.12,24.55q1.34-5.89,2.69-11.81l.43.08v14H30.5c1.17,1.93,2,3.38,2.91,4.83l1.68.22c1.67-4,3.35-8,4.76-11.42.27,1.5,1.2,3.93,1,6.26-.38,4.59.42,8.06,5.49,9.23l-.1-.11c-1,5.41,2.66,5.34,6.2,5.65.51-3.15,1.15-6,1.39-8.94s.05-5.81.05-8.72c1.07,3.36,1,6.66,1.11,10,.07,1.58.73,3.13.92,4.71.23,1.91.06,3.89.46,5.75.12.54,1.61.78,2.48,1.16.72-1.86,1.43-3.72,2.16-5.58.1-.23.28-.43.11-.17l3.49.68c-.68,2.29-1.31,4.39-1.94,6.48l1,1.07,5.95-2.73L69,626.44h7.55c2.27,4.73,5.22,5.43,9.92,2.87.93.9,1.6,2.12,2.48,2.3,4.17.86,8.48,1.1,12.58,2.16,24.3,6.24,49.21,7.62,74.07,8.73,18.94.85,37.94.21,56.92.15,12.65,0,12.65-.09,13.35-12.29,0-.17.33-.32.78-.72.48,4.31-.93,9.05,4.64,13.18.63-7.6,1.15-13.94,1.68-20.29.79,4,.83,8.22,1.18,12.39a9,9,0,0,0,1.7,4.14,2.74,2.74,0,0,0,2.52.08c1.3-2.2,2.92-4.49,3.26-6.91.53-3.81.14-7.75.14-11.25,1.26,4.06,2.71,8.7,4.17,13.43l-3.6,2.47c7.51,1.61,8.39,1,8.42-5.55,0-3.89,0-7.77,0-11.65a8.53,8.53,0,0,1,2,4.87c.33,2.08.33,4.29,1.08,6.2a4.94,4.94,0,0,0,3.16,2.72c.73.15,2.54-1.56,2.67-2.58.6-4.75.79-9.55,1.09-13.87l3.88,14.92,2.52-.28V615.8l1,.11,6.15,12.94.63-.65V613.75l5.68,3.84c-.35-2.61-.53-4-.75-5.6l4.76,4.18,1.31-.79c-.62-2.35-1.23-4.69-1.89-7.22l5.2,1.83c.34-1.48.6-2.65.75-3.31l6,1.21-1-5.75,7.12,5c-.62-3.16-1-5-1.44-7.43l5.2,3.87c-.34-2.89-.55-4.68-.75-6.4l4.75,2.56c-.28-2.56-.51-4.6-.74-6.69l6,3c-1.11-2.6-1.78-4.17-2.87-6.74l4.74,3.68c1.52-6.71-5.67-7.68-6.75-12l2.07-2q3.38,5.85,6.76,11.69l2.57-1.72c-.54-2.24-1.09-4.47-1.7-6.93l4.6,3.06c.93-11.21-9-9.34-14.25-13.22,6.72-.71,11.49,2.61,16.43,7-1-9.22-9-8.84-14.35-11.8l8.85-1.25,5.4,6.13,1-1c-2.33-8-9.06-11.61-16-16h10.27c-4.52-5.47-17.24-10.07-25.58-8.37L321,548.3c-1.46,3-1.46,3,8,7.22l-5.2.71c-.17.5-.34,1-.52,1.5l8.62,4.1c-1.14,0-1.8-.06-2.45,0-3.21.34-8.08-1.69-6.44,5.21.44,1.82-1.19,4.45-2.47,6.3a42.89,42.89,0,0,1-17.95,14.85c-17,7.59-35.18,10.73-53.62,12.59-7.29.73-14.51,2.24-21.81,2.74-7.11.5-14.27.21-21.41.15-1.08,0-2.14-.7-3.23-1-2.28-.66-4.56-1.78-6.87-1.84-17.91-.48-35.82-.75-53.74-1.09a13.48,13.48,0,0,1-2.46-.22c-8.29-1.58-16.58-3.14-24.84-4.83A11,11,0,0,1,111.7,593c7,0,13.47,1.07,20,1.75,13.88,1.43,27.75,3.3,41.66,3.79s27.83-.44,41.75-.83c8.76-.25,17.54-.38,26.27-1.08a180.86,180.86,0,0,0,20.84-3c4.91-1,9.73-4.35,14.41-4,8.93.59,15.83-3.68,22.86-7.43s14.79-7.09,16.4-16.17c.51-2.85.82-6.73-.69-8.64-1.36-1.71-5.32-1.36-8.14-1.93-.16.49-.32,1-.47,1.45l3.47,3.71c-3.48,1.06-4.77,2.85-3,4.49-2.31,11.67-13,12.88-22,17.91-2.61-.76-9,1-9.61,2.77-2.14-.15-4.08-.74-5.76-.31-2.6.66-4.93,2.46-7.54,3-4.24.85-8.62,1-12.93,1.55-3.42.41-6.82,1-10.23,1.33-2,.23-4.09.25-6.31.38-.68-.76-1.65-1.84-2.61-2.93l-3.2,3.34c-5.13-4.72-5.32-4.7-7.57,1.21-3-7.62-5.12-1.51-7.32.54l-2.27-2.41-8.87,1.86,2.52-3.08c-3.75.72-8.39-3.09-10.89,2.32H172.76l3.05-2.66a21.43,21.43,0,0,0-2.69-.15c-7.24.59-14.47,1.24-21.71,1.77a3.15,3.15,0,0,1-2.45-.82c-2-2.89-4.08-1.85-6.83-1.1-1.67.46-3.95-2-6.09-2.38-3.71-.69-7.53-.73-11.29-1.18-2.43-.29-4.85-.75-7.24-1.25-2-.42-4-1-6.78-1.76a15.33,15.33,0,0,0-1.23-1.91c-4.54,2.33-6.88-2.06-9.86-3.53-6-3-12.54-4.5-17.34-10.3-5.69-6.88-7.11-11.2-3.48-19.35,3-6.67,8.59-10.21,14.12-14.48l-10.21,2.24-.28-1.67,34.88-5.49a9.94,9.94,0,0,1-2,1.26c-8.57,2.95-17.51,5.12-25.63,9-6.41,3-11.73,8.41-10.75,16.72,1.18,10,8.6,15.57,16.69,18.92,24,9.92,49.42,13.69,75.18,14.11,18.83.31,37.69-1.43,56.55-1.71a192.91,192.91,0,0,0,46.66-6.16c9.43-2.5,18.14-6.48,22.71-16,2.58-5.39,1.11-13.41-3-16.48-1.31,3.82-2.6,7.61-3.9,11.41,1.71-11.66-1.38-18.63-9-18.42l-.39,8.51c-.61-4.91-.13-10.28-6.94-10.55-.72,4.18-1.43,8.32-2.14,12.46l-1.71-.17c2-5.34,2.38-10.42-2-14.74-.32-.32-.34-.92-.49-1.39l15,4.88c-3.44-6-8.69-7.29-15-4.84M57.81,89.48c5.35-.44,4,4.15,4.64,6.78,4.85,19.34,8.78,38.94,14.28,58.09,5.15,17.92,10.84,35.8,20.64,52,1.37,2.26,3.09,4.3,4.65,6.45l1.33-.79c-8.6-20.55-17.94-40.87-20.72-63.3,5.64,20,12.2,39.69,22.39,58l3.68-2.39L97.59,172.69l1.71-.6c4.69,12.51,9.37,25,14.78,39.47,1.76-6.36,3.84-1.8,5.94-2.17-2.1-8.55-4.14-16.91-6.19-25.26l1.42-.45c3.83,10.94,4.26,23.62,14.8,31.13l1.5-.47-7.62-27.92,1.45-.4a27.32,27.32,0,0,1,1.2,2.93c2,7.08,3.83,14.21,6,21.23.58,1.83,2.2,3.42,3.6,4.87.5.51,2.29.69,2.57.33a4.07,4.07,0,0,0,.51-2.89c-.5-2.75-1.24-5.45-1.88-8.17l1.19-.63c1.08,1.18,2.9,2.24,3.11,3.56,1.35,8.18,1.23,8.2,9.22,10.27-1.78-3.07-3.57-6.14-5.32-9.14,6.4-4.4-1.13-11,1.82-17.29a36.78,36.78,0,0,1,2,5.26c1.11,6,2.29,11.9,3,17.91.61,5.08,3.64,6.37,7.69,6.46V195.08c1.37,4.84,1.75,9.7,2.36,14.53.74,5.8,1.11,6,8,4.49V195.88l1.36-.06c.59,6.88,1.17,13.76,1.75,20.59,5.31-.34,7-2.8,6.75-7.28-.26-4-.06-8.12-.06-12.18l1.31-.11a30.57,30.57,0,0,1,.88,4.87c.12,5.32-.1,10.65.17,16a6.8,6.8,0,0,0,2.24,4c.38.36,2.05-.62,3.69-1.17L184.88,218c8-4.53,2.64-13.56,7.57-19.77,0,5.46-.17,10.09.11,14.69.08,1.34,1.42,2.6,2.18,3.89l2.93-2.89c1.33-.22,3.57,0,4.17-.81,1.95-2.83-.32-8.65-4.73-12.33,6.63,3.5,5.79-2.55,8.33-5.91,0,5.3-.2,9.43.1,13.53.11,1.51,1.42,2.93,2.18,4.39,1.78-1,3.85-1.62,5.25-3,.91-.87.86-2.75,1.24-4.17q2-7.57,4-15.14l2.1.44c-1.41,6.77-2.81,13.53-4.19,20.18,4.1,1.62,5.35-.07,6.05-2.91.55-2.2,1.39-4.34,2-6.52,1.63-5.61,3.13-11.25,4.89-16.81a39.83,39.83,0,0,1,2.82-5.76l1.55.34c.15,2,.88,4.17.35,6-1.64,5.59-3.83,11-5.61,16.56a2.88,2.88,0,0,0,1.1,2.58c.89.27,2.66-.07,3-.71a21.64,21.64,0,0,0,1.74-5.48c.21-.88-.27-2,.1-2.75,2.83-5.77,5.81-11.47,8.71-17.22a3.6,3.6,0,0,0,.09-1.35l-3.84-2.78,8.76-1.41c-.6,2.83-1,4.76-1.43,6.69l1.56.82c1.32-1.67,3.22-3.15,3.86-5.05,4.23-12.55,8.92-25,12.05-37.86,3.79-15.55,6.22-31.45,9.18-47.2.67-3.56.92-7.09-3.14-9.27q-2.55,11.51-5.11,23l-1.47-.36,3-23.45-2.15-.53-5.67,20c-.93-4.06-.53-8-.47-11.9.1-6.13-1.36-7.09-7.47-6.27-6.51.87-13.09,1.86-19.63,1.86-15.76,0-31.53-.41-47.28-.94-12.72-.43-25.47-.78-38.11-2.07-13.86-1.42-27.69-3.4-41.38-6S77.18,67.7,65,60.45C62.55,59,60,57.67,56.47,55.78c.87,5.09,1.54,8.61,2,12.15.43,3.08,2.09,7.48.69,9-3.78,4.19-1.57,8.18-1.39,12.51M72.49,61.14C73.17,52.82,75.68,48.9,83,45.72c-1.38,1.81-3.42,3-4.89,4.69s-2.26,3.73-3.63,6.11h3.32c.38,7.25,1.7,8.94,8.55,11.34,12.82,4.49,26.09,6.67,39.54,8l40.64,4c3.26.32,6.53.6,9.79,1,3.54.4,7.1,1.39,10.62,1.25,13.69-.55,27.38-1.2,41-2.28,17.83-1.41,35.75-2.42,53.38-5.19,15.44-2.42,29.85-8.47,41.19-20,10-10.2,7.05-20.21-2.56-27.59-13.51-10.36-30-12.95-45.9-16.86-8.2-2-16.84-2.29-25.3-3.23C236.35,5.55,224,3.86,211.56,3.14c-8.21-.47-16.5.74-24.76.8C165.15,4.12,143.43,3,122,7,106.2,10,89.92,11.4,76.15,21.18c-3.74,2.66-8.2,4.33-12.32,6.45L64.31,29l6.09-1.82v2.95l16-6.25c-.11,1-.19,1.73-.29,2.56L95,25c-9,4.07-17.71,8.31-26.17,13-5,2.83-7.33,8.56-6.07,12.3l9.76-11.75,1.17.92c-4.66,5.13-10.72,9.7-7.54,18C73.72,35.36,93,33.19,111.6,30.06A89.34,89.34,0,0,1,100.5,33c-9.87,2.21-18.85,6.3-26.29,13.24-5.08,4.74-5.67,10-1.72,15m51.15,284.54c0,.68,0,1.36-.07,2l17.93,5.83c-10.81,3.64-19.76-3-29.65-6.7a31.58,31.58,0,0,0,8.41,7.09c10.37,5.82,21.82,8.54,33.42,10.16a184.24,184.24,0,0,0,29,1.95,255.46,255.46,0,0,0,31.82-2.92c10.12-1.46,20.14-3.69,30.09-6,3-.71,5.7-2.88,8.53-4.38l-.73-2.06a192.74,192.74,0,0,1-81.46,11.21l4.08-2.22-11.93-1.74c-3-7.67-6-15.55-9-23.33l7.46-4.82-.41-1.49c-2.22.33-5.91,0-6.41,1.1-1.88,4.17-5.79,6.08-8.57,9.17-1.24,1.39-2.67,3.11-4.32,3.55a39.11,39.11,0,0,1-9.72,1.08c-1.27,0-2.48-1.53-3.83-1.79a28.78,28.78,0,0,0-5.34-.08l0,1.6,3.51.72-2.83,2.06m64.19,54.75c-7.06-.77-13.66-1.65-20.3-2.13-2.26-.17-3.82,1.08-3.74,4,.19,6.66.27,13.33,0,20-.17,3.85,1.58,5.53,5,5.84,5.23.46,10.47.89,15.7.87,1.13,0,3.18-2,3.22-3.08.27-8.41.15-16.84.15-25.44M152.38,315c-8.22-.3-14.94,2.7-20.82,8.16-4,3.69-5,12-1.68,15.66,3.58,4,8.61,3.35,13.61-1.58,5.7-5.62,11.44-11.2,17.16-16.79,1.71-1.67,2.58-3.28-.64-4.06-2.51-.61-5.09-.94-7.63-1.39m57.14,115.16c-7.05,5.06-14.9,3.93-22.56,4-4,0-8-.2-12,.05-6.22.39-12-.11-15.58-6.29-1.62.84-3.11,1.29-4.14,2.23-1.33,1.22-3.24,2.92-3.12,4.25s2.23,3,3.81,3.59c2.41.85,5.15.71,7.69,1.25,13.6,2.92,27,1.92,40.53-.93,4.94-1.05,4.35-4.66,5.34-8.13m28.15-104.22c.31-.4.62-.81.94-1.21-3.13-7.66-18.54-14.89-26-12.22-4.27,1.53-5.09,5.48-1.69,8.44a25,25,0,0,0,3.93,2.87c5.06,2.91,14.41,1.6,17-2.3l5.89,4.42m38.17-210.78c-4.35,1.75-8.48,10.56-8,15.91.35,4.06.71,8.28-2.93,11.44a3.84,3.84,0,0,0-1,2.17c-.78,4.83-1.48,9.67-2.26,14.86,6.44,1.95,2.61-6.43,6.29-7.64.48-.15.26-2.41.43-4.46,2.62-2.15,9-26.68,7.53-32.28M318.05,629c-10-1-17.74,8.43-28.21,8.64C300,640,325.4,630.71,327.73,623l-9.68,6M191.45,312.43c2.91-8.6,2.29-41.63-.44-45a167,167,0,0,0,.44,45m-4.59,65.68,0-.76,6.86-.88c-7.5-1.74-15-3.59-22,1.13l7.49,1.84-1.88,1.68.52,1.49,18.4-2.83c-.07-.56-.14-1.12-.22-1.67ZM90.74,201.25Q80,172.63,69.15,144c3.95,20.35,10.42,39.77,21.59,57.25M136,317.51a34.6,34.6,0,0,0-5.8-.8c-3.46.15-3.19,4.23-4.68,5.3-4.2,3.05-1.9,8-4.43,11.19a3.64,3.64,0,0,0,1.72,1.92c.75.19,2.36-.39,2.49-.9.64-2.67.92-5.42,1.51-9.28l9.19-7.43m-16.88,8.05c-3.93,4.08-5.93,10.17-3.76,14.41,1.36,2.65,4.18,4.54,6.31,6.74-.92-7.65-1.73-14.41-2.55-21.15m3.75-98.25c-6.55-3.09-5.82-13.09-14.82-11.54,0,6.55,6.15,11.73,14.82,11.54M279.41,103.59c-.67-.76-1.33-2.16-2.35-2.48-.69-.22-2.35.85-2.72,1.7a35,35,0,0,0-2.34,7.84c-.14.89,1.15,2.79,1.92,2.87,1.19.13,3.25-.62,3.61-1.53,1-2.37,1.19-5,1.88-8.4m23.52,441.95c0,.56-.05,1.11-.08,1.67l4.46,2-1.65,3.26,8.63,2.66c1.37-5.26-1.55-7.54-4.55-9.08-1.86-.95-4.51-.38-6.81-.5m-110.48-118V400.86c-4,8.89-2.55,17.74,0,26.64m-5.93,5.93c.06-.52.11-1,.17-1.56-.38-.23-.74-.63-1.13-.66-5.86-.53-11.71-1-17.57-1.45a12.06,12.06,0,0,0-3.06.62c.75.61,1.47,1.69,2.27,1.76,6.43.54,12.88.89,19.32,1.29m-56.16-62.57C130,376.5,134,380,140.7,380.57c.3-3.33-4.89-4.46-3.34-8.31l-7-1.4M163.9,225.14c.1.54.2,1.09.29,1.64l7.33-1.54c-.77-2.86-1.1-6-2.57-8.43-.44-.74-4,.39-7.18.79l5.89,6.55-3.76,1m98.25-56.08c-6.24-.54-9.6,5.73-6.93,14.15l6.93-14.15m-98.49,87c-.11.8-.23,1.61-.34,2.41l23.13,2.41c.08-.7.15-1.4.23-2.1l-23-2.72m-1.82,132.84c5.08,4.83,13,5.44,20.7,1.66l-20.7-1.66M275,99.35c3.42.73,6-.19,5.23-3.09-.54-2,.1-2.27.84-3.48a5.3,5.3,0,0,0,0-4c-.19-.51-2.33-1-2.88-.54-1,.81-2.43,3.08-2.19,3.32,2.66,2.76-.45,4.79-1,7.78m5-17.31-4.05,2.75c.64.66,1.46,2,1.89,1.86,1.62-.44,4-1,4.44-2.17a10,10,0,0,0,.15-6.56c-.24-.7-3.54-.34-5.45-.47l-.66,1.93c1.3,1,2.6,1.89,3.68,2.66m-121.78,244,14.47-2.39c-3.41-5.61-8.57-4.84-14.47,2.39m4.31-74.76-.1,2.44,20.11,2.11.21-1.91-20.22-2.64m82.18,275.09-.45,2.28,19.89,3.22.33-2-19.77-3.48m-61.7-81.06c0-.57.09-1.13.14-1.7l-20.88-1.77-.18,2.5,20.92,1m-38.46-217.2c-.42-4.32-4.3-9.07-8.25-10.14-.14,5.66,3,9.56,8.25,10.14m8.94,2,1.22-1.14-8.5-9.7a8.84,8.84,0,0,0,7.28,10.84m8.45,17.23c3.58,3.31,15.95,4.07,27.15,2.41l-27.15-2.41m-9,131.63.33.93h4.12c.4-2.84.77-5.45,1.18-8.38h-7.6l4.22,6.29-2.25,1.16M13.62,600.4c-.36-3.8-.47-6.48-1-9.09-.08-.4-1.93-.47-3-.69-.45,2.3-1.54,4.72-1.1,6.83.25,1.18,3,1.84,5,2.95M152.78,223.79l9.34,9.25c.79-6.68-2.07-9.47-9.34-9.25M161.83,348h5.9c-1.53-3.52-2.95-6.76-4.36-10l-1.54.44Zm17.11-30.46-16.58-2.67c5.69,4.84,11.75,5.66,16.58,2.67M311.31,540.1c.19-.67.39-1.35.58-2-4.27-1.37-8.53-2.78-12.82-4.07-.28-.08-1.11.66-1.19,1.11s.28,1.5.64,1.6c4.24,1.2,8.52,2.28,12.79,3.39m-68.2-351.64c5.44-.32,6.16-1.36,5-6.72-5.71-1.06-5.87,2.25-5,6.72m-225,377.86c-5.21,4.78-6.9,11.17-4.21,15,1.34-4.78,2.62-9.33,4.21-15M128.3,219.79c-.25.49-.49,1-.74,1.46l8.31,5.93,1-1.41c-1.46-4-3.82-6.72-8.55-6m79.28,27.43,0-1.52c-5.71,0-11.49-1.17-17.09,1.52Zm30.5-56c2.14,4.24,4.26,5.47,6.93,3.16.66-.57.08-2.58.06-3.93l-7,.77M237,203.81c3.42-1.54,6.65-2.51,5.42-7.07-5.22-.52-6,2.29-5.42,7.07m53.18,332.65-.5,2.46,10.66,2,.45-2.18Zm-93.3-182,12.69-1.76c-5.21-3.16-9.07-2.55-12.69,1.76M265.43,163c-4.11-3.41-5.79-1.7-6.74,1.19-.31.91.3,2.12.49,3.19l6.25-4.38m-128,78.9,5.45,1.81,1.73-4.8-4.71-1.15-2.47,4.14m51.75-8.37.73-2.37-6-2.16-.87,3Zm31.07,93.9c.72,2.51,1.21,4.6,2,6.59a2.57,2.57,0,0,0,1.94,1.07c.43,0,1.39-.91,1.31-1.2a25.52,25.52,0,0,0-2.11-6c-.33-.58-2.15-.32-3.12-.43" transform="translate(0 0)"/><path class="cls-4" d="M57.82,89.48c-.19-4.33-2.4-8.32,1.38-12.51,1.4-1.56-.26-6-.69-9-.5-3.54-1.17-7.06-2-12.15C60,57.67,62.55,59,65,60.45c12.15,7.25,25.52,11.28,39.22,13.88s27.52,4.58,41.38,6C158.27,81.62,171,82,183.74,82.4c15.75.53,31.52.93,47.28.94,6.55,0,13.12-1,19.63-1.86,6.11-.82,7.57.14,7.47,6.27-.06,3.92-.46,7.84.47,11.9l5.67-20,2.15.53-3,23.45,1.47.36q2.56-11.46,5.11-23c4.06,2.18,3.81,5.71,3.14,9.27-3,15.75-5.39,31.65-9.18,47.2-3.13,12.84-7.82,25.31-12.05,37.86-.64,1.9-2.54,3.38-3.86,5.05l-1.56-.82c.41-1.93.83-3.86,1.43-6.69l-8.76,1.41,3.84,2.78a3.6,3.6,0,0,1-.09,1.35c-2.9,5.75-5.88,11.45-8.71,17.22-.37.75.11,1.87-.1,2.75a21.64,21.64,0,0,1-1.74,5.48c-.35.64-2.12,1-3,.71a2.88,2.88,0,0,1-1.1-2.58c1.78-5.55,4-11,5.61-16.56.53-1.8-.2-4-.35-6l-1.55-.34a39.83,39.83,0,0,0-2.82,5.76c-1.76,5.56-3.26,11.2-4.89,16.81-.64,2.18-1.48,4.32-2,6.52-.7,2.84-2,4.53-6.05,2.91,1.38-6.65,2.78-13.42,4.19-20.18l-2.1-.44q-2,7.56-4,15.14c-.38,1.42-.33,3.3-1.24,4.17-1.4,1.35-3.47,2-5.25,3-.76-1.46-2.07-2.88-2.18-4.39-.3-4.1-.1-8.23-.1-13.53-2.54,3.36-1.7,9.41-8.33,5.91,4.41,3.68,6.68,9.5,4.73,12.33-.6.86-2.84.59-4.17.81l-2.93,2.89c-.76-1.29-2.1-2.55-2.18-3.89-.28-4.6-.11-9.23-.11-14.69-4.93,6.21.39,15.24-7.57,19.77l3.63,2.47c-1.64.55-3.31,1.53-3.69,1.17a6.8,6.8,0,0,1-2.24-4c-.27-5.31-.05-10.64-.17-16a30.57,30.57,0,0,0-.88-4.87l-1.31.11c0,4.06-.2,8.14.06,12.18.29,4.48-1.44,6.94-6.75,7.28-.58-6.83-1.16-13.71-1.75-20.59l-1.36.06V214.1c-6.85,1.47-7.22,1.31-8-4.49-.61-4.83-1-9.69-2.36-14.53v25.64c-4-.09-7.08-1.38-7.69-6.46-.72-6-1.9-12-3-17.92a37.18,37.18,0,0,0-2-5.25c-2.95,6.29,4.58,12.89-1.82,17.29,1.75,3,3.54,6.07,5.32,9.14-8-2.07-7.87-2.09-9.22-10.27-.21-1.32-2-2.38-3.11-3.56l-1.19.63c.65,2.72,1.38,5.42,1.88,8.17a4.08,4.08,0,0,1-.51,2.89c-.28.36-2.07.18-2.57-.33-1.4-1.46-3-3-3.6-4.87-2.21-7-4-14.15-6-21.23a24.69,24.69,0,0,0-1.2-2.93l-1.45.4,7.62,27.92-1.5.47c-10.54-7.51-11-20.19-14.8-31.13l-1.42.45c2,8.35,4.09,16.71,6.19,25.26-2.1.37-4.18-4.19-5.94,2.17-5.41-14.45-10.09-27-14.78-39.47l-1.71.6,11.11,31.56L105,206.63c-10.19-18.29-16.75-37.93-22.39-58,2.78,22.43,12.12,42.75,20.72,63.3l-1.33.79c-1.56-2.15-3.28-4.19-4.65-6.45-9.8-16.15-15.49-34-20.64-52-5.5-19.15-9.43-38.75-14.28-58.09-.66-2.63.71-7.22-4.63-6.78M243.5,166.25c6.25,2.48,8.25,1.8,9.56-3.4,1.55-6.13,2.65-12.39,3.79-18.62.21-1.11-.31-2.35-.49-3.54l-1.31,0c-1.34,4.45-2.55,8.93-4,13.32s-1.13,10-7.52,12.2M257,134.36c5.49-5.87,7.64-14.72,5.22-21.69-1.63,6.79-3.27,13.57-5.22,21.69m-2.55-8.62c.75-3.69,1.44-7,2.12-10.43-3.66.16-5,5.91-2.12,10.43" transform="translate(0 0)"/><path class="cls-4" d="M46.34,613.18c-5.07-1.17-5.87-4.65-5.49-9.23.2-2.33-.73-4.76-1-6.26-1.41,3.38-3.09,7.4-4.76,11.42l-1.68-.22c-.87-1.45-1.74-2.9-2.91-4.83h4.36V590l-.43-.08-2.7,11.81c-5-8.44-.91-16.46.13-24.56l-1.42-.3-4.44,18-1.5-.28V579.55c-.88,2.08-1.74,4.09-3.1,7.28l-1.87-5.35-3.49,4c-.41-11.39,4.7-19.73,10.67-28.11,7.59-10.67,19.39-13.68,30.48-17.24,18.22-5.85,36.85-10.53,55.49-14.94,8-1.9,16.51-1.91,24.94-2-5.92,5.37-14,2.37-20.42,5.45l.15-.14-34.9,5.5.28,1.67,10.21-2.24c-5.53,4.27-11.15,7.81-14.12,14.48-3.64,8.15-2.21,12.46,3.48,19.35,4.8,5.8,11.37,7.34,17.34,10.3,3,1.47,5.32,5.86,9.86,3.53a15.33,15.33,0,0,1,1.23,1.91c2.8.74,4.77,1.34,6.78,1.76,2.39.5,4.81,1,7.24,1.25,3.76.45,7.58.49,11.29,1.18,2.14.4,4.42,2.84,6.09,2.38,2.75-.75,4.82-1.79,6.83,1.1a3.15,3.15,0,0,0,2.45.82c7.24-.53,14.47-1.18,21.7-1.78a24.34,24.34,0,0,1,2.7.16l-3.05,2.66h19.72c2.49-5.41,7.14-1.6,10.89-2.32l-2.53,3.07,8.88-1.85,2.27,2.41c2.2-2,4.31-8.16,7.32-.54,2.25-5.91,2.44-5.93,7.57-1.21l3.2-3.34c1,1.09,1.93,2.17,2.61,2.93,2.22-.13,4.27-.15,6.31-.38,3.41-.38,6.81-.92,10.23-1.33,4.31-.52,8.69-.7,12.93-1.55,2.61-.52,4.94-2.32,7.53-3,1.69-.43,3.63.15,5.77.31.63-1.77,7-3.53,9.61-2.77,9-5,19.73-6.24,22-17.91-1.8-1.64-.51-3.43,3-4.49l-3.47-3.71c.15-.48.31-1,.47-1.45,2.82.57,6.78.22,8.14,1.93,1.51,1.91,1.2,5.79.69,8.64-1.61,9.08-9.52,12.49-16.4,16.17s-13.93,8-22.86,7.43c-4.68-.31-9.5,3.06-14.41,4a180.86,180.86,0,0,1-20.84,3c-8.73.7-17.51.83-26.27,1.08-13.92.39-27.86,1.32-41.75.83s-27.78-2.36-41.66-3.79c-6.55-.68-13.07-1.76-20-1.76a10.78,10.78,0,0,0,2.93,1.66c8.26,1.69,16.55,3.25,24.84,4.83a13.48,13.48,0,0,0,2.46.22c17.91.34,35.83.61,53.74,1.09,2.31.06,4.59,1.18,6.87,1.84,1.09.31,2.15,1,3.23,1,7.14.06,14.3.35,21.41-.15,7.3-.51,14.52-2,21.81-2.74,18.44-1.86,36.62-5,53.61-12.6a42.76,42.76,0,0,0,18-14.84c1.27-1.86,2.9-4.48,2.47-6.3-1.64-6.9,3.23-4.87,6.44-5.21.65-.07,1.31,0,2.45,0l-8.62-4.1c.18-.5.35-1,.52-1.5l5.2-.71c-9.45-4.22-9.45-4.22-8-7.22l-4.74-1.56c8.34-1.7,21.06,2.9,25.58,8.37H331.6c7,4.41,13.7,8,16,16l-1,1-5.4-6.13-8.85,1.25c5.33,3,13.34,2.58,14.35,11.79-4.94-4.43-9.71-7.75-16.43-7,5.22,3.88,15.18,2,14.25,13.22L340,582.1c.61,2.47,1.16,4.7,1.7,6.94l-2.57,1.72-6.76-11.69-2.07,2c1.08,4.28,8.27,5.25,6.75,12l-4.74-3.68c1.09,2.57,1.76,4.14,2.87,6.74l-6-3c.23,2.09.46,4.13.74,6.69l-4.75-2.56c.2,1.72.41,3.51.75,6.4l-5.2-3.87c.47,2.41.82,4.26,1.44,7.43l-7.12-5,1,5.75-6-1.21c-.15.66-.41,1.83-.75,3.31l-5.2-1.83c.66,2.53,1.27,4.87,1.89,7.22l-1.31.79L299.85,612c.22,1.62.4,3,.75,5.6l-5.68-3.84V628.2c-.21.22-.42.44-.64.65l-6.14-13-1-.1v15.86l-2.52.28L280.75,617c-.3,4.32-.49,9.12-1.09,13.87-.13,1-1.94,2.73-2.67,2.58a4.94,4.94,0,0,1-3.16-2.72c-.75-1.91-.75-4.12-1.08-6.2a8.53,8.53,0,0,0-2-4.87c0,3.88,0,7.76,0,11.65,0,6.52-.91,7.16-8.42,5.55l3.6-2.47L261.77,621c0,3.5.39,7.44-.14,11.25-.34,2.42-2,4.71-3.26,6.91a2.77,2.77,0,0,1-2.53-.08,9.14,9.14,0,0,1-1.69-4.14c-.35-4.17-.39-8.36-1.18-12.39-.53,6.35-1.05,12.69-1.68,20.29-5.57-4.13-4.16-8.87-4.64-13.18-.45.4-.77.55-.78.72-.7,12.2-.7,12.26-13.35,12.29-19,.06-38,.7-56.92-.15-24.86-1.11-49.77-2.49-74.07-8.73-4.11-1.06-8.42-1.3-12.58-2.16-.88-.18-1.55-1.4-2.48-2.3-4.7,2.55-7.65,1.86-9.92-2.87H69l.63-4.05-5.95,2.72-1-1.06c.63-2.09,1.26-4.19,1.94-6.48l-3.49-.68c.16-.26,0-.06-.11.17-.73,1.85-1.44,3.72-2.16,5.58-.87-.38-2.36-.62-2.48-1.16-.4-1.86-.23-3.84-.46-5.75-.19-1.58-.85-3.13-.92-4.71-.14-3.3,0-6.61-1.11-10,0,2.91.18,5.83-.05,8.72s-.89,5.79-1.4,8.94c-3.53-.31-7.23-.24-6.2-5.67.51-.64,1.49-1.28,1.47-1.9-.07-2.35-.79-4.71-.65-7,.24-4.18.94-8.34,1.61-13.87-4,8.26-2.62,15.65-2.32,22.93M32.76,557.77c-7.68,1.67-12.66,10-10.82,17.16,3.61-5.72,6.94-11,10.82-17.16M72.6,542.38c-8.35,6.27-10.64,18.07-5,25.59-2.43-12.35-2.71-12.24,5-25.59M216.83,620c0,4.29,0,8.58.06,12.87,0,.6.76,1.17,1.17,1.76.57-.42,1.42-.72,1.66-1.28,2.06-4.85,1.15-9.3-2.89-13.35M86.53,583.89c6.6,3.49,12.74,8.28,20.7,7.26l-20.7-7.26M183,603.78l0,1.19h14l-.08-2.09-13.92.9m54.52,17.37-2.23.52q.93,5.33,1.88,10.65l2-.38q-.85-5.38-1.69-10.79m-10.25,13.31.91,0V621.91l-.91.05Z" transform="translate(0 0)"/><path class="cls-4" d="M117.2,528.71h15.32l.9,1.26-10.23,10.36.5.69c3.34-2.83,7.12-5.27,9.95-8.54,12.58-14.54,21.41-31.15,25.12-50.06,2-10.22,2.94-20.66,4-31,.31-3.16,1.13-4.56,4.4-4.34,6.25.43,12.55.37,18.72,1.27,1.54.22,3.62,3.26,3.8,5.15,1,10.81,1.36,21.67,2.23,32.49a68.76,68.76,0,0,0,2.61,12.88l-4.11-49.37,2.21-.42,2.22,12q4.71,25.39,9.45,50.78c.1.5.71.89,1.61,2-1.6-7-3-13.19-4.46-19.4l2-.67c4.34,11.93,8.68,23.86,12.83,35.25h6.39c0,.48,0,1,.05,1.45l-4.67.85c1,2.07,2.06,4.09,3.08,6.1l.56-.18c-.22-1.32-.44-2.64-.72-4.28,5.29,0,6.4,4.69,8.37,7.52,2.42,3.48,3.69,6.82,9,4.64,1.32-.54,3.56,1.17,5.38,1.84l-3.7,4.58c3.14.54,5.52-1.33,7.63-7.58-4.19,1.6-5.5.08-4.41-4.34l5.07,3.69c1.51-6-3.91-8.75-5.16-13.07,9.52.85,12.47,7.19,9.89,17,4.42-3.92,4.39-7.08,0-15,4.47,2.68,10.11-1.08,14.28,3.19v0c.15.47.17,1.07.49,1.39,4.35,4.32,3.95,9.4,2,14.73l1.71.18c.71-4.14,1.42-8.28,2.14-12.46,6.81.27,6.33,5.64,6.94,10.55l.39-8.51c7.59-.21,10.68,6.76,9,18.42,1.3-3.8,2.59-7.59,3.89-11.41,4.08,3.07,5.55,11.09,3,16.48-4.57,9.54-13.28,13.52-22.71,16a192.91,192.91,0,0,1-46.66,6.16c-18.86.28-37.72,2-56.55,1.71-25.76-.43-51.2-4.19-75.18-14.11-8.09-3.35-15.51-8.91-16.69-18.92-1-8.31,4.34-13.67,10.75-16.72,8.12-3.88,17.06-6.05,25.62-9a10.07,10.07,0,0,0,2-1.26l-.14.13M214,558.65l1.26-.45q-9-22.19-17.93-44.37c-1.09,10.74,7.64,34.82,16.67,44.82m9.3-4-16-35.9c-2.32,8.45,10.14,34.67,16,35.9m-89.79-4.79c7.83-1.61,14.89-12.08,13.72-18.87l-13.72,18.87m11.57.5c7.13-3,10.47-9.35,8.74-16.7l-8.74,16.7m117.05-12c.65,9.15-4.56,14.72-12.14,19.3,9.64-.53,16.44-11.45,12.14-19.3M122.46,548.62l2,2,11.9-11.32-1.69-1.8-12.16,11.12M146,525.76l-1.78-1.3-8.43,11.59,1.82,1.32L146,525.76" transform="translate(0 0)"/><path class="cls-4" d="M123.64,345.68l2.83-2.06L123,342.9l0-1.6a28.78,28.78,0,0,1,5.34.08c1.35.26,2.56,1.8,3.83,1.79a39.11,39.11,0,0,0,9.72-1.08c1.65-.44,3.08-2.16,4.32-3.55,2.78-3.09,6.69-5,8.57-9.17.5-1.1,4.19-.77,6.41-1.1l.41,1.49-7.46,4.82c3,7.78,6.06,15.66,9,23.33L175,359.65l-4.08,2.22a192.74,192.74,0,0,0,81.46-11.21c.24.69.49,1.37.73,2.06-2.83,1.5-5.51,3.67-8.53,4.38-9.95,2.34-20,4.57-30.09,6a255.46,255.46,0,0,1-31.82,2.92,184.24,184.24,0,0,1-29-1.95c-11.6-1.62-23.05-4.34-33.42-10.16a31.58,31.58,0,0,1-8.41-7.09c9.89,3.66,18.84,10.34,29.65,6.7l-17.93-5.83c0-.68,0-1.36.07-2m31.29-8c-7.34,4-13.83,7.52-20.32,11,9.18,2.41,18.69-2.87,20.32-11" transform="translate(0 0)"/><path class="cls-4" d="M175.56,311.18a13,13,0,0,0-2.06-.81c-7.76-1.81-8.65-2.92-8.65-10.9V265.69h23.43c.19,7.92.39,15.89.55,23.86.06,3.15,0,6.31,0,9.46,0,12.2-1.22,13.29-13.43,12Z" transform="translate(0 0)"/><path class="cls-4" d="M171.67,350.16c-5.22-5.75-4.84-12.29-1.78-18.6s8.62-8.84,15.83-9.43c8.78-.7,12.86,4.73,16.77,10.68,1.53,2.33,1.23,5-2.56,5.52-1.72.26-3.38.87-5.88,1.54l9.74,1.05.14,1.51-4,2.35c.05.62.46,2.33.14,2.48-4.56,2.12-9.08,4.89-13.91,5.71-3.76.64-7.94-1.18-11.92-2a20,20,0,0,1-2.78-1Z" transform="translate(0 0)"/><path class="cls-4" d="M187.83,400.43c0,8.6.12,17-.15,25.44,0,1.11-2.09,3.07-3.22,3.08-5.23,0-10.47-.41-15.7-.87-3.41-.31-5.16-2-5-5.84.29-6.65.21-13.32,0-20-.08-2.88,1.48-4.13,3.74-4,6.63.48,13.24,1.36,20.3,2.13" transform="translate(0 0)"/><path class="cls-4" d="M152.38,315c2.54.45,5.12.78,7.63,1.39,3.22.78,2.34,2.39.64,4.06-5.72,5.59-11.46,11.17-17.16,16.79-5,4.93-10,5.54-13.61,1.58-3.3-3.65-2.29-12,1.68-15.66,5.88-5.46,12.6-8.46,20.82-8.16" transform="translate(0 0)"/><path class="cls-4" d="M209.52,430.11c-1,3.47-.4,7.08-5.34,8.13-13.5,2.85-26.93,3.85-40.53.93-2.54-.54-5.28-.4-7.69-1.25-1.58-.56-3.69-2.25-3.81-3.59s1.79-3,3.12-4.25c1-.94,2.52-1.39,4.14-2.23,3.6,6.18,9.36,6.68,15.58,6.29,4-.25,8,0,12-.05,7.65,0,15.51,1.08,22.56-4" transform="translate(0 0)"/><path class="cls-4" d="M237.67,325.89l-5.9-4.42c-2.54,3.9-11.89,5.21-17,2.3a25,25,0,0,1-3.93-2.87c-3.4-3-2.58-6.91,1.69-8.44,7.49-2.67,22.9,4.56,26,12.22-.32.4-.63.81-.94,1.21" transform="translate(0 0)"/><path class="cls-4" d="M275.83,115.11c1.49,5.6-4.9,30.13-7.52,32.28-.17,2.05.05,4.31-.43,4.46-3.68,1.21.15,9.59-6.29,7.64.78-5.19,1.47-10,2.26-14.86a3.84,3.84,0,0,1,1-2.17c3.64-3.16,3.28-7.38,2.93-11.44-.45-5.35,3.68-14.16,8-15.91" transform="translate(0 0)"/><path class="cls-4" d="M191.45,312.43a167,167,0,0,1-.44-45c2.73,3.36,3.35,36.39.44,45" transform="translate(0 0)"/><path class="cls-4" d="M186.85,378.11h9.22l.22,1.67-18.4,2.83-.52-1.48,1.88-1.69-7.49-1.84c7-4.72,14.5-2.87,22-1.13l-6.86.88-.05.76" transform="translate(0 0)"/><path class="cls-4" d="M90.74,201.25C79.57,183.77,73.1,164.35,69.15,144q10.8,28.62,21.59,57.25" transform="translate(0 0)"/><path class="cls-4" d="M136,317.51l-9.19,7.43c-.59,3.86-.87,6.61-1.51,9.28-.13.51-1.74,1.09-2.49.9a3.68,3.68,0,0,1-1.72-1.92c2.53-3.23.23-8.14,4.43-11.19,1.49-1.07,1.22-5.15,4.68-5.3a34.6,34.6,0,0,1,5.8.8" transform="translate(0 0)"/><path class="cls-4" d="M119.1,325.56c.82,6.74,1.63,13.5,2.55,21.15-2.13-2.2-5-4.09-6.31-6.74-2.17-4.24-.17-10.33,3.76-14.41" transform="translate(0 0)"/><path class="cls-4" d="M122.85,227.31c-8.67.19-14.82-5-14.83-11.54,9-1.55,8.28,8.45,14.83,11.54" transform="translate(0 0)"/><path class="cls-4" d="M171.51,350c2.06,1.09,4.18,2.09,6.16,3.32,1.65,1,3.13,2.31,4.69,3.48-.44.79-.89,1.58-1.34,2.37l-18.21-7.39c.16-.77.33-1.54.49-2.31l8.38.69-.17-.16" transform="translate(0 0)"/><path class="cls-4" d="M279.41,103.59c-.69,3.37-.92,6-1.88,8.39-.36.91-2.42,1.67-3.61,1.54-.77-.08-2.06-2-1.92-2.87a34.84,34.84,0,0,1,2.34-7.84c.37-.86,2-1.92,2.72-1.7,1,.32,1.68,1.71,2.35,2.48" transform="translate(0 0)"/><path class="cls-4" d="M302.93,545.54c2.3.12,4.95-.45,6.81.5,3,1.54,5.92,3.82,4.55,9.08l-8.63-2.67c.55-1.07,1-2,1.65-3.25l-4.46-2c0-.56,0-1.11.08-1.67" transform="translate(0 0)"/><path class="cls-4" d="M192.45,427.5c-2.55-8.9-4-17.75,0-26.64Z" transform="translate(0 0)"/><path class="cls-4" d="M175.41,311l7.42,3.11c-5.31,2.47-19-.24-21.23-4.79l14,1.83-.16-.15" transform="translate(0 0)"/><path class="cls-4" d="M186.52,433.43c-6.44-.4-12.89-.75-19.32-1.29-.8-.07-1.52-1.15-2.27-1.76a12.06,12.06,0,0,1,3.06-.62c5.86.41,11.71.92,17.57,1.44.39,0,.75.44,1.13.67-.06.52-.11,1-.17,1.56" transform="translate(0 0)"/><path class="cls-4" d="M130.36,370.86l7,1.4c-1.55,3.85,3.64,5,3.34,8.31-6.68-.61-10.7-4.07-10.34-9.71" transform="translate(0 0)"/><path class="cls-4" d="M163.9,225.14l3.76-1-5.89-6.55c3.16-.4,6.74-1.53,7.18-.79,1.47,2.44,1.8,5.57,2.57,8.43l-7.33,1.54c-.09-.55-.19-1.1-.29-1.64" transform="translate(0 0)"/><path class="cls-4" d="M262.15,169.06l-6.93,14.15c-2.67-8.42.69-14.69,6.93-14.15" transform="translate(0 0)"/><path class="cls-4" d="M163.66,256.08l23,2.72c-.08.7-.15,1.4-.23,2.1l-23.13-2.41c.11-.8.23-1.61.34-2.41" transform="translate(0 0)"/><path class="cls-4" d="M161.84,388.92l20.7,1.66c-7.65,3.78-15.62,3.17-20.7-1.66" transform="translate(0 0)"/><path class="cls-4" d="M275,99.35c.52-3,3.63-5,1-7.78-.24-.24,1.15-2.51,2.19-3.32.55-.42,2.69,0,2.88.54a5.3,5.3,0,0,1,0,4c-.74,1.21-1.38,1.5-.84,3.48.8,2.9-1.81,3.82-5.23,3.09" transform="translate(0 0)"/><path class="cls-4" d="M279.92,82c-1.08-.77-2.38-1.71-3.68-2.66l.66-1.93c1.91.13,5.21-.23,5.45.47a10,10,0,0,1-.15,6.56c-.46,1.17-2.82,1.73-4.44,2.17-.43.12-1.25-1.2-1.89-1.86L279.92,82" transform="translate(0 0)"/><path class="cls-4" d="M158.14,326.07c5.9-7.22,11.06-8,14.47-2.38l-14.47,2.38" transform="translate(0 0)"/><path class="cls-4" d="M162.45,251.32,182.67,254l-.21,1.92-20.11-2.12Z" transform="translate(0 0)"/><path class="cls-4" d="M244.63,526.4l19.77,3.49-.33,2-19.89-3.22.45-2.29" transform="translate(0 0)"/><path class="cls-4" d="M182.93,445.35l-20.92-1,.18-2.5,20.88,1.77c0,.57-.09,1.13-.14,1.7" transform="translate(0 0)"/><path class="cls-4" d="M144.47,228.15c-5.21-.58-8.39-4.48-8.25-10.14,3.95,1.07,7.83,5.82,8.25,10.14" transform="translate(0 0)"/><path class="cls-4" d="M153.41,230.2a8.84,8.84,0,0,1-7.28-10.84q4.25,4.86,8.5,9.7l-1.22,1.14" transform="translate(0 0)"/><path class="cls-4" d="M161.86,247.43,189,249.84c-11.2,1.66-23.57.9-27.15-2.41" transform="translate(0 0)"/><path class="cls-4" d="M152.87,379.06l2.25-1.16-4.22-6.29h7.6c-.41,2.93-.78,5.54-1.18,8.38H153.2l-.33-.93" transform="translate(0 0)"/><path class="cls-4" d="M267.3,535.37c6.28-2.45,11.53-1.14,15,4.84l-15-4.88v0" transform="translate(0 0)"/><path class="cls-4" d="M152.78,223.79c7.27-.22,10.13,2.57,9.34,9.25l-9.34-9.25" transform="translate(0 0)"/><path class="cls-4" d="M161.83,348v-9.55l1.54-.45c1.41,3.24,2.82,6.48,4.36,10Z" transform="translate(0 0)"/><path class="cls-4" d="M178.94,317.57c-4.83,3-10.89,2.17-16.58-2.67l16.58,2.67" transform="translate(0 0)"/><path class="cls-4" d="M311.31,540.1c-4.27-1.11-8.55-2.19-12.79-3.39-.36-.1-.72-1.1-.64-1.6s.91-1.19,1.19-1.11c4.29,1.29,8.55,2.7,12.82,4.07-.19.68-.39,1.36-.58,2" transform="translate(0 0)"/><path class="cls-4" d="M243.11,188.46c-.83-4.47-.67-7.78,5-6.72,1.12,5.36.4,6.39-5,6.72" transform="translate(0 0)"/><path class="cls-4" d="M18.14,566.32c-1.59,5.65-2.87,10.2-4.21,15-2.69-3.82-1-10.2,4.21-15" transform="translate(0 0)"/><path class="cls-4" d="M128.3,219.79c4.73-.74,7.09,2,8.55,6l-1,1.41-8.3-5.93.73-1.46" transform="translate(0 0)"/><path class="cls-4" d="M207.58,247.22H190.45c5.6-2.69,11.38-1.51,17.09-1.52l0,1.52" transform="translate(0 0)"/><path class="cls-4" d="M238.08,191.21l7-.77c0,1.35.6,3.36-.06,3.93-2.67,2.31-4.79,1.08-6.93-3.16" transform="translate(0 0)"/><path class="cls-4" d="M237,203.81c-.62-4.78.2-7.59,5.42-7.07,1.23,4.56-2,5.53-5.42,7.07" transform="translate(0 0)"/><path class="cls-4" d="M290.21,536.46l10.61,2.26-.45,2.18-10.66-2Z" transform="translate(0 0)"/><path class="cls-4" d="M196.91,354.42c3.62-4.31,7.48-4.92,12.69-1.76l-12.69,1.76" transform="translate(0 0)"/><path class="cls-4" d="M265.43,163l-6.25,4.38c-.19-1.07-.8-2.28-.5-3.19,1-2.89,2.64-4.6,6.75-1.19" transform="translate(0 0)"/><path class="cls-4" d="M137.41,241.9c.94-1.56,1.63-2.72,2.47-4.13l4.71,1.15c-.55,1.52-1,2.8-1.74,4.8l-5.44-1.82" transform="translate(0 0)"/><path class="cls-4" d="M189.16,233.54l-6.1-1.49.87-3,6,2.16Z" transform="translate(0 0)"/><path class="cls-4" d="M220.23,327.44c1,.11,2.79-.15,3.12.43a25.52,25.52,0,0,1,2.11,6c.08.29-.88,1.23-1.31,1.2a2.57,2.57,0,0,1-1.94-1.07c-.77-2-1.26-4.08-2-6.59" transform="translate(0 0)"/><path class="cls-3" d="M243.5,166.25c6.39-2.24,6-7.77,7.52-12.2s2.69-8.88,4-13.32l1.31,0c.18,1.18.7,2.43.49,3.54-1.14,6.23-2.24,12.48-3.79,18.62-1.31,5.2-3.31,5.88-9.56,3.4" transform="translate(0 0)"/><path class="cls-3" d="M257,134.36c2-8.12,3.59-14.9,5.22-21.69,2.42,7,.27,15.82-5.22,21.69" transform="translate(0 0)"/><path class="cls-3" d="M254.48,125.74c-2.83-4.52-1.54-10.27,2.12-10.43-.68,3.39-1.37,6.74-2.12,10.43" transform="translate(0 0)"/><path class="cls-3" d="M144,18.61,123,20.1c4.93-4.72,17.43-5.59,21-1.49" transform="translate(0 0)"/><path class="cls-3" d="M82.67,60.82C82,55,85.39,50.93,92.42,50.1L82.67,60.82" transform="translate(0 0)"/><path class="cls-3" d="M122,12.58,96,18l-.22-1.12,26-5.39c.08.37.15.74.23,1.11" transform="translate(0 0)"/><path class="cls-3" d="M121.49,37.82l9.17-.42c0,.66.09,1.32.13,2-2.91,2.69-6.13,1.85-9.43.22,0-.59.08-1.19.13-1.78" transform="translate(0 0)"/><path class="cls-3" d="M122,27.08l10.51-1.42c.1.67.21,1.34.31,2L122.3,29.27l-.3-2.19" transform="translate(0 0)"/><path class="cls-3" d="M32.76,557.77c-3.88,6.17-7.21,11.44-10.82,17.16-1.84-7.17,3.14-15.49,10.82-17.16" transform="translate(0 0)"/><path class="cls-3" d="M72.6,542.38c-7.68,13.35-7.4,13.24-5,25.59-5.67-7.52-3.38-19.32,5-25.59" transform="translate(0 0)"/><path class="cls-3" d="M86.53,583.9l20.7,7.25c-8,1-14.1-3.77-20.7-7.25" transform="translate(0 0)"/><path class="cls-3" d="M214,558.65c-9-10-17.76-34.08-16.67-44.82l17.94,44.37-1.27.45" transform="translate(0 0)"/><path class="cls-3" d="M223.27,554.61c-5.84-1.23-18.3-27.45-16-35.9l16,35.9" transform="translate(0 0)"/><path class="cls-3" d="M133.48,549.82,147.2,531c1.17,6.79-5.89,17.26-13.72,18.87" transform="translate(0 0)"/><path class="cls-3" d="M145.05,550.32l8.74-16.7c1.73,7.35-1.61,13.74-8.74,16.7" transform="translate(0 0)"/><path class="cls-3" d="M262.1,538.35c4.3,7.85-2.5,18.77-12.14,19.3,7.58-4.58,12.79-10.15,12.14-19.3" transform="translate(0 0)"/><path class="cls-3" d="M122.46,548.62l12.16-11.12,1.69,1.8-11.9,11.32-2-2" transform="translate(0 0)"/><path class="cls-3" d="M146,525.76l-8.39,11.61-1.82-1.32,8.43-11.59,1.78,1.3" transform="translate(0 0)"/><path class="cls-3" d="M154.93,337.72c-1.63,8.18-11.14,13.46-20.32,11,6.49-3.53,13-7.07,20.32-11" transform="translate(0 0)"/></g></g></g></g></g></svg>